# xmcd CD database file
#
# Track frame offsets:
#	150
#	32723
#	50947
#	73268
#	106036
#	125772
#	144543
#	154485
#	180013
#	219883
#	240068
#	252691
#
# Disc length: 3685 seconds
#
# Revision: 0
# Processed by: cddbd v1.5.2PL0 Copyright (c) Steve Scherf et al.
# Submitted via: CDex 1.51
#
DISCID=aa0e630c
DTITLE=TSF Jazz - TSF JAZZ 1999-2009 - 10 ans - [CD 2001]
DYEAR=2001
DGENRE=Jazz
TTITLE0=Jean-Philippe Viret Trio - Madame Loire
TTITLE1=Alfio Origlio - How Deep Is Your Love
TTITLE2=Patrick Saussois and Alma Sinti - La Bikina
TTITLE3=Charlie Haden and Egberto Gismonti - Lôro
TTITLE4=Otis Taylor - 3 Days And 3 Nights
TTITLE5=Jean-Pierre Como - Primavera
TTITLE6=Biréli Lagrène - Swing 42
TTITLE7=BFG - Purge
TTITLE8=Jacky Terrasson - A Paris
TTITLE9=Richard Galliano and Eddy Louis - Face To Face
TTITLE10=Jean-Jacques Milteau - The Feeling Is Real
TTITLE11=Giovanni Mirabassi - El Pueblo Unido Jamas Sera Vencido
EXTD=YEAR: 2001
EXTT0=
EXTT1=
EXTT2=
EXTT3=
EXTT4=
EXTT5=
EXTT6=
EXTT7=
EXTT8=
EXTT9=
EXTT10=
EXTT11=
PLAYORDER=
